<?xml version="1.0" encoding="UTF-8"?>
<!DOCTYPE svg PUBLIC "-//W3C//DTD SVG 1.1//EN" "http://www.w3.org/Graphics/SVG/1.1/DTD/svg11.dtd">
<!-- Creator: CorelDRAW (Versão de avaliação) -->
<svg xmlns="http://www.w3.org/2000/svg" xml:space="preserve" width="43.35mm" height="43.35mm" version="1.1" style="shape-rendering:geometricPrecision; text-rendering:geometricPrecision; image-rendering:optimizeQuality; fill-rule:evenodd; clip-rule:evenodd"
viewBox="0 0 3246.87 3246.87"
 xmlns:xlink="http://www.w3.org/1999/xlink"
 xmlns:xodm="http://www.corel.com/coreldraw/odm/2003"
 data-name="Layer 1">
 <defs>
  <style type="text/css">
   <![CDATA[
    .fil0 {fill:none}
    .fil1 {fill:#007BFF;fill-rule:nonzero}
   ]]>
  </style>
 </defs>
 <g id="Camada_x0020_1">
  <metadata id="CorelCorpID_0Corel-Layer"/>
  <rect class="fil0" width="3246.87" height="3246.87"/>
  <g id="_2563763472256">
   <path class="fil1" d="M3044.65 73.01l-129.22 0c-356.23,0 -646,289.82 -646,646l0 1196.53c-123.01,-101.67 -280.64,-162.91 -452.19,-162.91 -391.74,0 -710.6,318.72 -710.6,710.6 0,391.88 318.87,710.61 710.6,710.61 391.73,0 710.6,-318.73 710.6,-710.61l0 -1744.23c0,-213.69 173.89,-387.63 387.63,-387.63l129.16 0.04c71.44,0 129.21,-57.87 129.21,-129.21 0,-71.34 -57.77,-129.21 -129.21,-129.21zm-1227.4 2842.42c-249.34,0 -452.19,-202.85 -452.19,-452.19 0,-249.33 202.85,-452.18 452.19,-452.18 249.34,0 452.19,202.85 452.19,452.18 0,249.34 -202.85,452.19 -452.19,452.19zm-1744.24 -2713.21c0,-71.34 57.77,-129.21 129.21,-129.21l1421.21 0c71.44,0 129.21,57.87 129.21,129.21 0,71.34 -57.77,129.21 -129.21,129.21l-1421.21 0c-71.44,0 -129.21,-57.87 -129.21,-129.21zm0 775.21c0,-71.34 57.77,-129.21 129.21,-129.21l1421.21 0c71.44,0 129.21,57.87 129.21,129.21 0,71.34 -57.77,129.21 -129.21,129.21l-1421.21 0c-71.44,0 -129.21,-57.87 -129.21,-129.21zm1033.64 775.21c0,71.34 -57.77,129.21 -129.22,129.21l-775.21 0c-71.44,0 -129.21,-57.87 -129.21,-129.21 0,-71.34 57.77,-129.21 129.21,-129.21l775.21 0c71.45,0 129.22,57.87 129.22,129.21z"/>
  </g>
 </g>
</svg>
