<?xml version="1.0" encoding="UTF-8"?>
<!DOCTYPE svg PUBLIC "-//W3C//DTD SVG 1.1//EN" "http://www.w3.org/Graphics/SVG/1.1/DTD/svg11.dtd">
<!-- Creator: CorelDRAW (Versão de avaliação) -->
<svg xmlns="http://www.w3.org/2000/svg" xml:space="preserve" width="43.3492mm" height="43.3492mm" version="1.1" style="shape-rendering:geometricPrecision; text-rendering:geometricPrecision; image-rendering:optimizeQuality; fill-rule:evenodd; clip-rule:evenodd"
viewBox="0 0 3184.34 3184.34"
 xmlns:xlink="http://www.w3.org/1999/xlink"
 xmlns:xodm="http://www.corel.com/coreldraw/odm/2003">
 <defs>
  <style type="text/css">
   <![CDATA[
    .fil0 {fill:none}
    .fil1 {fill:#007BFF;fill-rule:nonzero}
   ]]>
  </style>
 </defs>
 <g id="Camada_x0020_1">
  <metadata id="CorelCorpID_0Corel-Layer"/>
  <rect class="fil0" width="3184.34" height="3184.34"/>
  <path class="fil1" d="M2786.55 289.19l-108.6 0c-299.37,0 -542.9,243.57 -542.9,542.9l0 1005.56c-103.38,-85.44 -235.85,-136.91 -380.02,-136.91 -329.22,0 -597.18,267.85 -597.18,597.18 0,329.33 267.97,597.2 597.18,597.2 329.21,0 597.18,-267.86 597.18,-597.2l0 -1465.85c0,-179.58 146.14,-325.76 325.76,-325.76l108.55 0.03c60.04,0 108.59,-48.63 108.59,-108.59 0,-59.96 -48.55,-108.59 -108.59,-108.59l0.02 0.01zm-1031.5 2388.77c-209.55,0 -380.02,-170.47 -380.02,-380.02 0,-209.54 170.47,-380.01 380.02,-380.01 209.54,0 380.01,170.47 380.01,380.01 0,209.55 -170.47,380.02 -380.01,380.02zm-1465.86 -2280.17c0,-59.96 48.55,-108.59 108.59,-108.59l1194.38 0c60.04,0 108.59,48.64 108.59,108.59 0,59.95 -48.55,108.59 -108.59,108.59l-1194.38 0c-60.04,0 -108.59,-48.64 -108.59,-108.59zm0 651.48c0,-59.96 48.55,-108.59 108.59,-108.59l1194.38 0c60.04,0 108.59,48.63 108.59,108.59 0,59.96 -48.55,108.59 -108.59,108.59l-1194.38 0c-60.04,0 -108.59,-48.63 -108.59,-108.59zm868.66 651.49c0,59.96 -48.55,108.59 -108.59,108.59l-651.49 0c-60.04,0 -108.59,-48.63 -108.59,-108.59 0,-59.96 48.55,-108.59 108.59,-108.59l651.49 0c60.04,0 108.59,48.63 108.59,108.59z"/>
 </g>
</svg>
